<svg xmlns="http://www.w3.org/2000/svg" width="447" height="369" viewBox="0 0 447 369">
    <title>WrkLst</title>
    <g fill="none" fill-rule="evenodd" stroke="currentColor">
        <rect stroke-width="15.8887451" x="7.94437257" y="7.94437257" width="430.962913" height="352.315653" rx="36.6131935"/>
        <g stroke-width="2" transform="translate(49.2814, 49.1984)">
            <polygon points="204.709333 0 223.64224 0 223.64224 260.234359 348.762686 260.234359 348.762686 277.050405 204.709333 277.050405"/>
            <path d="M0.416324379,0.00130648869 L18.3162256,0.00130648869 L17.4835768,163.539363 C16.928563,178.674138 16.651184,193.8084 16.651184,208.943175 C16.651184,224.07795 16.3735491,239.212469 15.8185352,254.346988 L17.4835768,254.346988 L38.2974928,208.943175 C45.2352942,193.8084 51.8957166,178.674138 58.2787601,163.539363 L133.624517,0.00130648869 L151.940742,0.00130648869 L157.352192,163.539363 C158.462475,193.808657 159.294868,224.077694 159.849882,254.346988 L161.514924,254.346988 C173.448362,224.077694 185.936558,193.808657 198.979768,163.539363 L266.000316,0.00130648869 L284.316286,0.00130648869 L167.342953,277.048894 L144.863996,277.048894 L139.036222,86.6051115 C139.036222,75.6744123 138.966877,64.8840966 138.827932,54.233652 C138.689242,43.5834636 138.758587,32.6527644 139.036222,21.4420668 L137.370924,21.4420668 C133.208192,32.6527644 128.698737,43.5132719 123.842045,54.0235891 C118.98561,64.5336502 114.198263,75.3941576 109.480517,86.6051115 L22.4789576,277.048894 L0,277.048894 L0.416324379,0.00130648869 Z"/>
        </g>
    </g>
</svg>
